<svg id="Capa_1" data-name="Capa 1" xmlns="http://www.w3.org/2000/svg" width="2017" height="678.18" viewBox="0 0 2017 678.18">
  <title>Ripley_2016</title>
  <g>
    <path id="path47961" d="M-191,275.18H1634V-403H-191Z" transform="translate(191 403)"/>
    <g id="g3458">
      <g id="g3426">
        <path id="path47963" d="M1263.52,275.18h57.18V106.24h-57.18Z" transform="translate(191 403)" style="fill: #cfd4d8"/>
        <path id="path47965" d="M237.87,275.18h143V106.24h-143Z" transform="translate(191 403)" style="fill: #741472"/>
        <path id="path47969" d="M-76.63,275.18H9.14V106.24H-76.63Z" transform="translate(191 403)" style="fill: #ffd400"/>
        <path id="path47971" d="M95.52,275.18H181.3V106.24H95.52Z" transform="translate(191 403)" style="fill: #f15b5b"/>
        <path id="path47973" d="M37.73,275.18h58.4V106.24H37.73Z" transform="translate(191 403)" style="fill: #cfd4d8"/>
        <path id="path47975" d="M380.22,275.18H437.4V106.24H380.22Z" transform="translate(191 403)" style="fill: #ce171e"/>
        <path id="path47977" d="M-191,275.18h85.77V106.24H-191Z" transform="translate(191 403)" style="fill: #ce171e"/>
        <path id="path47979" d="M1492.26,275.18H1578V106.24h-85.77Z" transform="translate(191 403)" style="fill: #741472"/>
        <path id="path47981" d="M436.8,275.18h85.77V106.24H436.8Z" transform="translate(191 403)" style="fill: #cfd4d8"/>
        <path id="path47983" d="M522,275.18h85.77V106.24H522Z" transform="translate(191 403)" style="fill: #ce171e"/>
        <path id="path47987" d="M181.3,275.18h57.18V106.24H181.3Z" transform="translate(191 403)" style="fill: #ffd400"/>
        <path id="path47989" d="M1320.71,275.18h28.59V106.24h-28.59Z" transform="translate(191 403)" style="fill: #fff"/>
        <path id="path47991" d="M665.53,275.18H750.7V106.24H665.53Z" transform="translate(191 403)" style="fill: #ffd400"/>
        <path id="path47995" d="M750.7,275.18h85.77V106.24H750.7Z" transform="translate(191 403)" style="fill: #741472"/>
        <path id="path47997" d="M835.87,275.18H893V106.24H835.87Z" transform="translate(191 403)" style="fill: #f15b5b"/>
        <path id="path47999" d="M893,275.18h28.59V106.24H893Z" transform="translate(191 403)" style="fill: #ce171e"/>
        <path id="path48001" d="M921.64,275.18h85.77V106.24H921.64Z" transform="translate(191 403)" style="fill: #ffd400"/>
        <path id="path48003" d="M1035.4,275.18H1064V106.24h-28.6Z" transform="translate(191 403)" style="fill: #fff"/>
        <path id="path48005" d="M636.33,275.18h28.59V106.24H636.33Z" transform="translate(191 403)" style="fill: #fff"/>
        <path id="path48007" d="M8.53,275.18H37.12V106.24H8.53Z" transform="translate(191 403)" style="fill: #fff"/>
        <path id="path48009" d="M1121.17,275.18h143V106.24h-143Z" transform="translate(191 403)" style="fill: #ce171e"/>
        <path id="path48011" d="M1064,275.18h57.18V106.24H1064Z" transform="translate(191 403)" style="fill: #741472"/>
        <path id="path48013" d="M1349.3,275.18h85.77V106.24H1349.3Z" transform="translate(191 403)" style="fill: #f15b5b"/>
        <path id="path48015" d="M1435.07,275.18h57.18V106.24h-57.18Z" transform="translate(191 403)" style="fill: #ffd400"/>
        <path id="path48017" d="M1577.42,275.18H1634V106.24h-56.57V275.18Z" transform="translate(191 403)" style="fill: #ce171e"/>
      </g>
      <g id="g3453">
        <path id="path47967" d="M-105.23,275.18h28.59V106.24h-28.59Z" transform="translate(191 403)" style="fill: #741472"/>
        <path id="path47985" d="M607.74,275.18h28.59V106.24H607.74Z" transform="translate(191 403)" style="fill: #741472"/>
        <path id="path47993" d="M1007.41,275.18H1036V106.24h-28.59Z" transform="translate(191 403)" style="fill: #cfd4d8"/>
      </g>
    </g>
    <g id="g48031">
      <path id="path48033" d="M135.87-61.73c0-1.16-1.43-1.53-1.43-1.53C120.27-65.91,107-75.93,97-86.54c-16.4-17.38-30.18-39.53-35.53-49.88-1.63-3.68.66-4.11.66-4.11h0C89.75-151.38,94.34-179.34,94.34-187c0-35.52-33.17-46-63-46-11.32,0-15.07,1-26.86,1-13.65,0-21.88-1-24-1-1.89,0-3.05,1.69-3.05,3.58,0,8.56,19.29-5.94,19,22.65V-92.65c.26,26.47-18.07,19.07-18.07,25.51,0,2.16,2.29,2.89,3.75,2.89,6.84,0,14.58-1,25.63-1,13.94,0,17.43,1,25.47,1C39-64.25,40-65.44,40-67.14c0-8.09-24.7,4.31-24.73-30V-217.52c0-7.13,5.21-7.13,12.71-7.13,27.09,0,48.51,15.19,49,44.08.3,19.54-14.14,38.08-38.15,38.08-8.43,0-6.57-.5-8.47-.5A2.07,2.07,0,0,0,28-141.23a2.07,2.07,0,0,0,0,.4c0,2.22,1.76,3.28,3.75,3.91,2.69,1.13,8.73,2.12,15,12h0c16,26.63,34.13,66.43,75.33,66.43,15.37,0,13.81-1.86,13.81-3.22M1454.21-238.18c-9.5,0-21.65,3-30.65,11-16.77,14.93-28,39.8-34.6,55.79-2,5.41-4.12,7-5.25,7-1.43,0-2.82-1.43-4.71-4.31l-25.07-41c-1.43-2.16-4.25-5.94-4.25-9.75,0-6.93,11-7.16,11-11.21,0-2.16-2.79-2.39-4.45-2.39-2.32,0-8.73,1-16.5,1-15.9,0-20.49-1-26.79-1-1.66,0-3.05,1.92-3.05,3.58,0,4,11.52,1.19,17.63,11.44l39.31,63.61c1.89,2.89,5.45,7.63,5.55,12.14v57.71c-.11,16.92-18.24,10.71-18.24,17.38,0,2.62,1.43,2.89,3.49,2.89s10.62-1,21.18-1c8.73,0,22.41,1,25.9,1s5.45-.27,5.45-2.39c0-7.4-19.32-.76-18.92-21.49v-57c4.37-14.43,14.17-37.81,28.84-56.32,11.59-14.63,25.07-26,43.36-32.34,1.23-.46,2.29-1,2.29-2.29,0-2.19-11.55-2.12-11.55-2.12M1074.33-208c0-16-.54-15,22.1-15,9.46,0,33.9-1.46,40,6.63,3.79,5.54,0,17,5.68,17,1.39,0,4.65-1.89,4.65-28.36,0-2.85-.43-5.24-2.29-5.24-7.3,0-29,.93-33.7.93-9.86,0-22.11-.93-66.6-.93-6.84,0-8.2.93-8.2,2.85,0,2.85,5.15,3.35,7,3.81,12.68,1.89,12.68,13.33,12.5,24V-93.64c.19,11.21-.21,17.91-6.35,20.8-7.54,3.78-9.89,3.32-10.33,6.2,0,1.89,1.39,2.39,3.49,2.39,9.43,0,19.32-.73,28.72-1,17.93-.5,35.82,1,53.69,1,10.36,0,15.54.46,23-8.13,5.61-6.17,11.79-14.49,11.79-23.12,0-.46-.23-2.82-1.86-2.82-3.12,0-11.09,24.51-65.47,24.51-19.72,0-17.9-5.74-17.85-19.83v-43.75c0-3.62-.74-7.66,4.21-8h34.83c19.79.29,11.79,21.22,19.09,21.22,1.66,0,2.59-.93,2.59-3,0-6.47-.5-12.64-.5-18.84,0-7.66.5-15.72.5-24.11,0-1.86-.73-4.48-2.59-4.48-5.68,0,.7,19.07-23.77,18.93h-25.41c-9.46.14-9,.14-8.92-8ZM796.93-93.64c0,14.1-2,19.83,18.09,19.83,55,0,63.16-24.51,66.26-24.51,1.65,0,1.92,2.35,1.92,2.82,0,8.56-6.15,17-11.93,23.12-7.6,8.59-12.81,8.13-23.36,8.13-18.12,0-36.2-1.49-54.32-1-9.55.27-19.5,1-29.08,1-2.15,0-3.56-.5-3.56-2.39.47-2.89,2.82-2.42,10.49-6.2,6.19-2.89,6.66-9.59,6.66-20.8V-214.43c0-12.37-20-10.68-20-15.49,0-2.62,1.65-3.08,4.77-3.08,5,0,12.37,1,24,1,13.58,0,19.33-1,22.93-1,3,0,4.47.46,4.47,3.35,0,5.51-17.35-.5-17.35,20.2V-93.64ZM537.78-217.52c0-7.13,5.25-7.13,12.93-7.13,27.41,0,49.6,15.19,49.6,44.08,0,21.49-14.31,33.1-38.63,33.1-8.62,0-13.64-1.43-15.56-1.43a2.1,2.1,0,0,0-2.37,1.79,2.1,2.1,0,0,0,0,.37c0,4.28,13.84,5.47,16.23,5.47,50.88,0,58-36.22,58-45.74,0-35.52-33.64-46-64-46-11.42,0-15.26.93-27.18.93-13.84,0-22.23-.93-24.38-.93-1.89,0-3.06,1.66-3.06,3.58,0,8.56,19.57-5.94,19.57,22.65V-92.65c0,26.47-18.66,19.07-18.66,25.51,0,2.16,2.39,2.89,3.84,2.89,6.94,0,14.82-1,26.06-1,14,0,17.61,1,25.8,1,5.93,0,6.9-1.19,6.9-2.89,0-8.09-25.09,4.31-25.09-30V-217.52Zm-242.72,5c-.27-17.41-19.36-12.6-19.36-17.84,0-2.19.51-2.65,2.39-2.65,8.82,0,17.41,1,26.27,1,7.37,0,14.78-1,22.23-1,3.77,0,4.51.46,4.51,2.39,0,5.74-17.17.27-17.17,18.11v128c0,16.19,21.22,10.71,21.22,17.88,0,1.66-.71,2.39-4.78,2.39-5.46,0-15.73-1-26-1-14.55,0-19.6,1-22.93,1-4.31,0-5-1.19-5-3.62,0-6.93,18.62,1,18.62-22.65Z" transform="translate(191 403)" style="fill: #fff"/>
    </g>
    <path d="M1786.54,181.78a18.19,18.19,0,0,1,5.74-13.51,19.22,19.22,0,0,1,13.93-5.6,19.43,19.43,0,0,1,14,5.6,18.63,18.63,0,0,1,.66,26.34q-.32.34-.66.66a19.41,19.41,0,0,1-14,5.6,19.21,19.21,0,0,1-13.93-5.6A18.19,18.19,0,0,1,1786.54,181.78Z" transform="translate(191 403)"/>
    <path d="M1713,.56l15.76,27.66Q1720.31,36,1717,43.63a44.89,44.89,0,0,0-3.28,17.85q0,18.64,11.52,30.16t29.52,11.51q17.5,0,28.58-11.09t11.08-29.12q0-22.3-15.76-34.73L1797.3,2Q1826,23.3,1826,62.12q0,34.93-21.43,54.71t-50.18,19.78A72.48,72.48,0,0,1,1717.7,127a68.93,68.93,0,0,1-26.35-26.84,77.88,77.88,0,0,1-9.58-38.52q0-19.72,8.13-35.42A68,68,0,0,1,1713,.56Z" transform="translate(191 403)"/>
    <path d="M1681.76-91.57a70.28,70.28,0,0,1,36.06-61,72.79,72.79,0,0,1,35.93-9.25,74,74,0,0,1,36.31,9.31A68.35,68.35,0,0,1,1826-91.69q0,28.48-21,48.62t-51,20.14q-32.15,0-53.58-22.76Q1681.76-65.65,1681.76-91.57Zm32.4-.55a33.63,33.63,0,0,0,11.16,25.78Q1736.48-56,1753.88-56q17.9,0,29-10.18T1794-92a33.86,33.86,0,0,0-11.22-26q-11.22-10.36-28.87-10.36t-28.68,10.18Q1714.16-108,1714.16-92.12Z" transform="translate(191 403)"/>
    <path d="M1685.29-188.69v-33.22h15.76a56.9,56.9,0,0,1-14.5-18.94,53.69,53.69,0,0,1-4.79-22.71,41.11,41.11,0,0,1,6.3-22.41q6.31-10,18.41-16.08a54.41,54.41,0,0,1-18.41-19.42,51.51,51.51,0,0,1-6.3-25.15,45.33,45.33,0,0,1,6.81-24.84,38.91,38.91,0,0,1,17.78-15.41q11-4.69,35.68-4.69h80.44v33.46h-69.6q-23.32,0-31.58,5.6T1713-335.71a24.89,24.89,0,0,0,5,15.27,29.75,29.75,0,0,0,13.93,10q8.89,3.29,28.56,3.29h61.91v33.47H1756q-18.41,0-26.67,2.62T1717-263.19a20.2,20.2,0,0,0-4,12.69,24.43,24.43,0,0,0,5.11,15.07,30.4,30.4,0,0,0,14.31,10.12q9.2,3.35,29,3.35h61v33.23Z" transform="translate(191 403)"/>
  </g>
</svg>
